<?xml version="1.0" standalone="no"?>
<!DOCTYPE svg PUBLIC "-//W3C//DTD SVG 20010904//EN"
 "http://www.w3.org/TR/2001/REC-SVG-20010904/DTD/svg10.dtd">
<svg version="1.0" xmlns="http://www.w3.org/2000/svg"
 width="1022.000000pt" height="1022.000000pt" viewBox="0 0 1022.000000 1022.000000"
 preserveAspectRatio="xMidYMid meet">
<metadata>
Created by potrace 1.14, written by Peter Selinger 2001-2017
</metadata>
<g transform="translate(0.000000,1022.000000) scale(0.100000,-0.100000)"
fill="#000000" stroke="none">
<path d="M5177 8023 c-4 -3 -7 -287 -7 -629 0 -349 -4 -625 -9 -628 -5 -3 -24
5 -42 17 -67 45 -168 84 -302 116 -106 25 -325 8 -457 -35 -115 -38 -293 -167
-371 -269 -51 -68 -81 -119 -111 -193 -7 -17 -17 -31 -23 -29 -5 2 -29 34 -51
72 -23 37 -67 96 -98 130 -251 282 -716 402 -1141 296 -92 -23 -112 -29 -155
-48 -25 -12 -62 -28 -83 -37 -60 -25 -186 -118 -259 -193 -88 -90 -156 -204
-195 -328 -60 -188 -60 -363 0 -545 97 -294 349 -517 677 -600 25 -6 59 -16
76 -21 17 -5 55 -9 85 -10 30 0 79 -4 109 -8 124 -18 414 32 548 95 41 19 76
34 78 34 3 0 43 25 89 56 102 68 216 185 269 277 21 37 43 70 47 73 5 3 21
-21 36 -53 75 -162 207 -302 367 -393 89 -49 266 -92 391 -93 47 0 175 19 235
36 63 18 177 72 234 111 21 14 43 26 47 26 5 0 9 -27 9 -60 l0 -60 353 2 352
3 5 320 c3 205 8 307 13 285 26 -108 69 -203 138 -305 53 -79 164 -191 224
-225 22 -12 54 -31 71 -40 86 -49 266 -92 389 -93 44 0 156 13 185 23 14 4 45
14 70 21 56 17 141 57 205 98 27 17 53 31 57 31 4 0 8 -27 8 -60 l0 -60 350 0
350 0 0 865 0 865 -347 -2 -348 -3 -5 -45 c-6 -52 -12 -53 -80 -11 -51 31
-135 65 -197 80 -24 6 -60 16 -82 21 -94 24 -323 6 -451 -36 -241 -80 -453
-314 -526 -579 l-19 -70 -5 905 -5 905 -346 3 c-190 1 -348 -1 -352 -5z
m-2200 -1725 c137 -60 211 -164 212 -299 2 -115 -49 -211 -141 -270 -120 -77
-221 -76 -340 3 -97 65 -138 143 -138 263 0 82 11 123 51 181 31 46 106 105
154 122 42 15 168 15 202 0z m1990 0 c68 -30 121 -73 157 -129 49 -75 60 -118
53 -208 -5 -61 -12 -84 -40 -130 -42 -70 -128 -131 -210 -151 -69 -16 -173 -2
-218 31 -15 10 -31 19 -36 19 -30 0 -123 138 -123 183 0 14 -5 38 -10 53 -15
37 6 126 43 186 33 55 92 108 151 137 48 24 186 29 233 9z m2075 -2 c19 -8 40
-22 48 -30 7 -9 18 -16 25 -16 17 0 67 -57 102 -117 25 -43 28 -57 28 -138 0
-83 -2 -94 -32 -146 -18 -30 -43 -67 -55 -80 -50 -53 -155 -99 -228 -99 -105
0 -233 69 -273 148 -7 15 -18 36 -24 47 -24 44 -33 138 -19 196 24 104 84 175
194 230 47 23 183 26 234 5z"/>
</g>
</svg>
